<svg xmlns="http://www.w3.org/2000/svg" xmlns:xlink="http://www.w3.org/1999/xlink" width="40" zoomAndPan="magnify" viewBox="0 0 30 30.000001" height="40" preserveAspectRatio="xMidYMid meet" version="1.0"><path fill="#4c7899" d="M 15.03125 2.417969 C 8.367188 2.417969 2.964844 7.820312 2.964844 14.484375 C 2.964844 19.816406 6.421875 24.335938 11.21875 25.933594 C 11.820312 26.042969 12.039062 25.671875 12.039062 25.351562 C 12.039062 25.066406 12.027344 24.304688 12.027344 23.300781 C 8.667969 24.027344 7.960938 21.683594 7.960938 21.683594 C 7.414062 20.289062 6.621094 19.917969 6.621094 19.917969 C 5.527344 19.167969 6.703125 19.183594 6.703125 19.183594 C 7.917969 19.269531 8.550781 20.429688 8.550781 20.429688 C 9.628906 22.273438 11.378906 21.742188 12.0625 21.433594 C 12.171875 20.652344 12.484375 20.121094 12.828125 19.816406 C 10.152344 19.515625 7.335938 18.480469 7.335938 13.855469 C 7.335938 12.539062 7.804688 11.460938 8.574219 10.617188 C 8.453125 10.3125 8.035156 9.085938 8.695312 7.425781 C 8.695312 7.425781 9.707031 7.097656 12.011719 8.660156 C 13 8.390625 14.003906 8.253906 15.03125 8.253906 C 16.054688 8.253906 17.0625 8.390625 18.050781 8.660156 C 20.355469 7.097656 21.367188 7.425781 21.367188 7.425781 C 22.027344 9.085938 21.613281 10.3125 21.484375 10.617188 C 22.261719 11.460938 22.726562 12.539062 22.726562 13.855469 C 22.726562 18.492188 19.90625 19.507812 17.21875 19.808594 C 17.648438 20.179688 18.035156 20.917969 18.035156 22.042969 C 18.035156 23.65625 18.019531 24.957031 18.019531 25.351562 C 18.019531 25.675781 18.234375 26.050781 18.851562 25.933594 C 23.644531 24.332031 27.097656 19.8125 27.097656 14.484375 C 27.097656 7.820312 21.695312 2.417969 15.03125 2.417969 Z M 15.03125 2.417969 " fill-opacity="1" fill-rule="evenodd"/></svg>