<svg id="visual" viewBox="0 0 960 540" width="960" height="540" xmlns="http://www.w3.org/2000/svg" xmlns:xlink="http://www.w3.org/1999/xlink" version="1.1"><rect x="0" y="0" width="960" height="540" fill="#060e14"></rect><path d="M0 416L12.3 417C24.7 418 49.3 420 74 423.3C98.7 426.7 123.3 431.3 148 432.8C172.7 434.3 197.3 432.7 221.8 430.2C246.3 427.7 270.7 424.3 295.2 422.8C319.7 421.3 344.3 421.7 369 423.5C393.7 425.3 418.3 428.7 443 430.5C467.7 432.3 492.3 432.7 517 431.5C541.7 430.3 566.3 427.7 591 426.2C615.7 424.7 640.3 424.3 664.8 426.7C689.3 429 713.7 434 738.2 433.5C762.7 433 787.3 427 812 426.2C836.7 425.3 861.3 429.7 886 428.2C910.7 426.7 935.3 419.3 947.7 415.7L960 412L960 541L947.7 541C935.3 541 910.7 541 886 541C861.3 541 836.7 541 812 541C787.3 541 762.7 541 738.2 541C713.7 541 689.3 541 664.8 541C640.3 541 615.7 541 591 541C566.3 541 541.7 541 517 541C492.3 541 467.7 541 443 541C418.3 541 393.7 541 369 541C344.3 541 319.7 541 295.2 541C270.7 541 246.3 541 221.8 541C197.3 541 172.7 541 148 541C123.3 541 98.7 541 74 541C49.3 541 24.7 541 12.3 541L0 541Z" fill="#2c5364"></path><path d="M0 459L12.3 459.7C24.7 460.3 49.3 461.7 74 457C98.7 452.3 123.3 441.7 148 438.7C172.7 435.7 197.3 440.3 221.8 441.8C246.3 443.3 270.7 441.7 295.2 439.3C319.7 437 344.3 434 369 434.5C393.7 435 418.3 439 443 443.2C467.7 447.3 492.3 451.7 517 454.8C541.7 458 566.3 460 591 458.2C615.7 456.3 640.3 450.7 664.8 450.5C689.3 450.3 713.7 455.7 738.2 454.7C762.7 453.7 787.3 446.3 812 442.2C836.7 438 861.3 437 886 437.7C910.7 438.3 935.3 440.7 947.7 441.8L960 443L960 541L947.7 541C935.3 541 910.7 541 886 541C861.3 541 836.7 541 812 541C787.3 541 762.7 541 738.2 541C713.7 541 689.3 541 664.8 541C640.3 541 615.7 541 591 541C566.3 541 541.7 541 517 541C492.3 541 467.7 541 443 541C418.3 541 393.7 541 369 541C344.3 541 319.7 541 295.2 541C270.7 541 246.3 541 221.8 541C197.3 541 172.7 541 148 541C123.3 541 98.7 541 74 541C49.3 541 24.7 541 12.3 541L0 541Z" fill="#24414f"></path><path d="M0 480L12.3 479.2C24.7 478.3 49.3 476.7 74 472.8C98.7 469 123.3 463 148 462.3C172.7 461.7 197.3 466.3 221.8 468.2C246.3 470 270.7 469 295.2 467.8C319.7 466.7 344.3 465.3 369 463.3C393.7 461.3 418.3 458.7 443 459.3C467.7 460 492.3 464 517 465.3C541.7 466.7 566.3 465.3 591 463.2C615.7 461 640.3 458 664.8 460C689.3 462 713.7 469 738.2 468.8C762.7 468.7 787.3 461.3 812 461.2C836.7 461 861.3 468 886 469.5C910.7 471 935.3 467 947.7 465L960 463L960 541L947.7 541C935.3 541 910.7 541 886 541C861.3 541 836.7 541 812 541C787.3 541 762.7 541 738.2 541C713.7 541 689.3 541 664.8 541C640.3 541 615.7 541 591 541C566.3 541 541.7 541 517 541C492.3 541 467.7 541 443 541C418.3 541 393.7 541 369 541C344.3 541 319.7 541 295.2 541C270.7 541 246.3 541 221.8 541C197.3 541 172.7 541 148 541C123.3 541 98.7 541 74 541C49.3 541 24.7 541 12.3 541L0 541Z" fill="#1c2f3a"></path><path d="M0 489L12.3 487.7C24.7 486.3 49.3 483.7 74 485.5C98.7 487.3 123.3 493.7 148 494.7C172.7 495.7 197.3 491.3 221.8 490.2C246.3 489 270.7 491 295.2 491.8C319.7 492.7 344.3 492.3 369 492.5C393.7 492.7 418.3 493.3 443 492.7C467.7 492 492.3 490 517 488.2C541.7 486.3 566.3 484.7 591 486.8C615.7 489 640.3 495 664.8 495.7C689.3 496.3 713.7 491.7 738.2 488.5C762.7 485.3 787.3 483.7 812 485.8C836.7 488 861.3 494 886 494.7C910.7 495.3 935.3 490.7 947.7 488.3L960 486L960 541L947.7 541C935.3 541 910.7 541 886 541C861.3 541 836.7 541 812 541C787.3 541 762.7 541 738.2 541C713.7 541 689.3 541 664.8 541C640.3 541 615.7 541 591 541C566.3 541 541.7 541 517 541C492.3 541 467.7 541 443 541C418.3 541 393.7 541 369 541C344.3 541 319.7 541 295.2 541C270.7 541 246.3 541 221.8 541C197.3 541 172.7 541 148 541C123.3 541 98.7 541 74 541C49.3 541 24.7 541 12.3 541L0 541Z" fill="#141f27"></path><path d="M0 515L12.3 512.8C24.7 510.7 49.3 506.3 74 506.8C98.7 507.3 123.3 512.7 148 513C172.7 513.3 197.3 508.7 221.8 507.3C246.3 506 270.7 508 295.2 508.5C319.7 509 344.3 508 369 508.3C393.7 508.7 418.3 510.3 443 510C467.7 509.7 492.3 507.3 517 508.3C541.7 509.3 566.3 513.7 591 513.2C615.7 512.7 640.3 507.3 664.8 508C689.3 508.7 713.7 515.3 738.2 517.7C762.7 520 787.3 518 812 517C836.7 516 861.3 516 886 515.8C910.7 515.7 935.3 515.3 947.7 515.2L960 515L960 541L947.7 541C935.3 541 910.7 541 886 541C861.3 541 836.7 541 812 541C787.3 541 762.7 541 738.2 541C713.7 541 689.3 541 664.8 541C640.3 541 615.7 541 591 541C566.3 541 541.7 541 517 541C492.3 541 467.7 541 443 541C418.3 541 393.7 541 369 541C344.3 541 319.7 541 295.2 541C270.7 541 246.3 541 221.8 541C197.3 541 172.7 541 148 541C123.3 541 98.7 541 74 541C49.3 541 24.7 541 12.3 541L0 541Z" fill="#060e14"></path></svg>