<svg xmlns="http://www.w3.org/2000/svg" xmlns:xlink="http://www.w3.org/1999/xlink" width="40" zoomAndPan="magnify" viewBox="0 0 30 30.000001" height="40" preserveAspectRatio="xMidYMid meet" version="1.0"><path fill="#4c7899" d="M 24.675781 3.628906 L 5.324219 3.628906 C 5.164062 3.628906 5.007812 3.660156 4.859375 3.722656 C 4.710938 3.78125 4.582031 3.871094 4.46875 3.984375 C 4.355469 4.097656 4.265625 4.226562 4.203125 4.375 C 4.144531 4.523438 4.113281 4.679688 4.113281 4.839844 L 4.113281 24.195312 C 4.113281 24.355469 4.144531 24.507812 4.203125 24.65625 C 4.265625 24.804688 4.355469 24.933594 4.46875 25.050781 C 4.582031 25.164062 4.710938 25.25 4.859375 25.3125 C 5.007812 25.371094 5.164062 25.402344 5.324219 25.402344 L 24.675781 25.402344 C 24.835938 25.402344 24.992188 25.371094 25.140625 25.3125 C 25.289062 25.25 25.417969 25.164062 25.53125 25.050781 C 25.644531 24.933594 25.734375 24.804688 25.796875 24.65625 C 25.855469 24.507812 25.886719 24.355469 25.886719 24.195312 L 25.886719 4.839844 C 25.886719 4.679688 25.855469 4.523438 25.796875 4.375 C 25.734375 4.226562 25.644531 4.097656 25.53125 3.984375 C 25.417969 3.871094 25.289062 3.78125 25.140625 3.722656 C 24.992188 3.660156 24.835938 3.628906 24.675781 3.628906 Z M 10.570312 22.183594 L 7.339844 22.183594 L 7.339844 11.789062 L 10.570312 11.789062 Z M 8.957031 10.371094 C 8.707031 10.371094 8.46875 10.324219 8.238281 10.230469 C 8.007812 10.132812 7.804688 10 7.628906 9.824219 C 7.453125 9.648438 7.320312 9.445312 7.222656 9.214844 C 7.128906 8.988281 7.082031 8.746094 7.082031 8.5 C 7.082031 8.25 7.128906 8.011719 7.222656 7.78125 C 7.320312 7.554688 7.453125 7.351562 7.628906 7.175781 C 7.804688 7 8.007812 6.863281 8.238281 6.769531 C 8.46875 6.675781 8.707031 6.625 8.957031 6.625 C 9.203125 6.625 9.441406 6.675781 9.671875 6.769531 C 9.902344 6.863281 10.101562 7 10.277344 7.175781 C 10.453125 7.351562 10.589844 7.554688 10.683594 7.78125 C 10.78125 8.011719 10.828125 8.25 10.828125 8.5 C 10.828125 8.746094 10.78125 8.984375 10.683594 9.214844 C 10.589844 9.445312 10.453125 9.648438 10.277344 9.824219 C 10.101562 10 9.902344 10.132812 9.671875 10.230469 C 9.441406 10.324219 9.203125 10.371094 8.957031 10.371094 Z M 22.667969 22.183594 L 19.4375 22.183594 L 19.4375 17.128906 C 19.4375 15.925781 19.417969 14.375 17.757812 14.375 C 16.078125 14.375 15.824219 15.6875 15.824219 17.042969 L 15.824219 22.183594 L 12.597656 22.183594 L 12.597656 11.792969 L 15.691406 11.792969 L 15.691406 13.210938 L 15.738281 13.210938 C 16.167969 12.394531 17.222656 11.535156 18.792969 11.535156 C 22.0625 11.535156 22.664062 13.683594 22.664062 16.484375 L 22.664062 22.183594 Z M 22.667969 22.183594 " fill-opacity="1" fill-rule="nonzero"/></svg>